<svg width="197" height="196" viewBox="0 0 197 196" fill="none" xmlns="http://www.w3.org/2000/svg">
<path d="M127.392 167.102C165.611 151.271 183.759 107.456 167.928 69.2376C152.097 31.0195 108.282 12.8709 70.0639 28.7017C31.8457 44.5325 13.6972 88.3479 29.528 126.566C45.3588 164.784 89.1742 182.933 127.392 167.102Z" fill="#FC9642"/>
<path d="M98.6998 24.5C139.2 24.5 172.1 57.4 172.1 97.9C172.1 138.4 139.2 171.3 98.6998 171.3C58.1998 171.3 25.2998 138.4 25.2998 97.9C25.2998 57.3 58.1998 24.5 98.6998 24.5ZM98.6998 21.5C56.5998 21.5 22.2998 55.8 22.2998 97.9C22.2998 140 56.5998 174.3 98.6998 174.3C140.8 174.3 175.1 140 175.1 97.9C175.1 55.7 140.9 21.5 98.6998 21.5Z" fill="#005E77"/>
<mask id="mask0_1652_2736" style="mask-type:luminance" maskUnits="userSpaceOnUse" x="25" y="24" width="148" height="148">
<path d="M98.6998 171.3C139.2 171.3 172.1 138.4 172.1 97.9C172.1 57.4 139.2 24.5 98.6998 24.5C58.1998 24.5 25.2998 57.4 25.2998 97.9C25.2998 138.4 58.1998 171.3 98.6998 171.3Z" fill="white"/>
</mask>
<g mask="url(#mask0_1652_2736)">
<path d="M111.8 110.6H85.6997V144H111.8V110.6Z" fill="#FFB697"/>
<path d="M146.8 146.5C134.5 141.3 112 137.4 112 137.4C103.4 144.7 92.4996 144.6 85.6996 137.4C85.6996 137.4 62.9996 140.8 50.0996 145.3C59.2996 161.6 76.3996 172.8 96.1996 173.7C97.0996 173.7 97.9997 173.8 98.8997 173.8C119.2 173.7 137 162.8 146.8 146.5Z" fill="#CCCCCC"/>
<path d="M80.3997 138.3C72.8997 139.6 51.0996 142.2 42.0996 145.3C50.2996 159.9 72.8996 170.4 90.0996 173.1C90.0996 173.1 81.5997 157.7 80.3997 138.3Z" fill="#83D2A8"/>
<path d="M117.099 138.3C124.599 139.6 147.399 142.2 156.399 145.3C148.199 159.9 124.599 170.4 107.399 173.1C107.399 173.1 115.899 157.7 117.099 138.3Z" fill="#83D2A8"/>
<path d="M120.099 107.2C129.299 102.4 123.799 94.5998 115.499 84.0998C114.299 82.5998 113.499 80.8998 112.999 79.1998C111.599 74.0998 105.699 70.2998 98.5993 70.2998C91.4993 70.2998 85.4994 74.1998 84.1994 79.2998C83.6994 81.0998 82.9994 82.7998 81.8994 84.3998C74.1994 95.4998 66.6994 104.4 77.6994 107.2H120.099Z" fill="black"/>
<path d="M98.6996 70.2C81.7996 70.2 77.9996 82.8 78.3996 95.6C78.3996 104.8 77.7996 107.7 78.5996 110C79.0996 113.2 85.5996 129.7 98.6996 129.7C111.8 129.7 117.8 114.1 119 110C119.9 107.7 119.1 104.8 119.1 95.6C119.4 82.9 115.6 70.2 98.6996 70.2Z" fill="#F7BDA4"/>
<path d="M98.6994 130C94.1994 130 88.9994 127.4 85.3994 123.4L85.9994 122.9C89.4994 126.8 94.4994 129.2 98.7994 129.2C103.099 129.2 108.299 126.7 111.599 122.9L112.199 123.4C108.599 127.4 103.299 130 98.6994 130Z" fill="black"/>
<path d="M78.7996 96.8C78.7996 96.8 75.2996 92.7 71.7996 95.1C68.2996 97.5 71.6996 111 78.7996 108.6C85.8996 106.2 78.7996 96.8 78.7996 96.8Z" fill="#F7BDA4"/>
<path d="M118.8 96.8C118.8 96.8 122.3 92.7 125.8 95.1C129.3 97.5 125.9 111 118.8 108.6C111.7 106.2 118.8 96.8 118.8 96.8Z" fill="#F7BDA4"/>
<path d="M77.749 102.597L77.0557 102.694L77.9257 108.934L78.619 108.837L77.749 102.597Z" fill="black"/>
<path d="M119.624 102.614L119.041 108.886L119.738 108.951L120.321 102.678L119.624 102.614Z" fill="black"/>
<path d="M73.5993 102.1C72.7993 100.1 72.7994 98.5999 73.3994 97.6999C73.9994 96.8999 74.8994 96.8999 74.9994 96.8999V97.5999C74.9994 97.5999 74.3994 97.5999 73.9994 98.0999C73.6994 98.5999 73.4994 99.5999 74.2994 101.8L73.5993 102.1Z" fill="black"/>
<path d="M124.299 102.1L123.599 101.8C124.399 99.5999 124.199 98.5999 123.899 98.0999C123.499 97.5999 122.999 97.5999 122.899 97.5999V96.8999C122.899 96.8999 123.899 96.8999 124.499 97.6999C125.099 98.5999 124.999 100.1 124.299 102.1Z" fill="black"/>
<path d="M76.0996 94.7998C79.1996 89.1998 94.0996 89.8998 98.6996 77.0998C103.1 91.6998 115.5 86.4998 121.3 94.3998C121.3 94.3998 119.3 65.7998 98.6996 65.7998C78.1996 65.7998 76.0996 94.7998 76.0996 94.7998Z" fill="black"/>
<path d="M88.3997 107.1C92.3762 107.1 95.5997 103.876 95.5997 99.9C95.5997 95.9235 92.3762 92.7 88.3997 92.7C84.4233 92.7 81.1997 95.9235 81.1997 99.9C81.1997 103.876 84.4233 107.1 88.3997 107.1Z" stroke="black" stroke-width="0.5" stroke-miterlimit="10" stroke-linecap="round" stroke-linejoin="round"/>
<path d="M108.4 107.1C112.376 107.1 115.6 103.876 115.6 99.9C115.6 95.9235 112.376 92.7 108.4 92.7C104.423 92.7 101.2 95.9235 101.2 99.9C101.2 103.876 104.423 107.1 108.4 107.1Z" stroke="black" stroke-width="0.5" stroke-miterlimit="10" stroke-linecap="round" stroke-linejoin="round"/>
<path d="M95.6997 99.0999C96.4997 98.5999 97.3997 98.3999 98.3997 98.3999C99.3997 98.3999 100.3 98.6999 101.2 99.1999" stroke="black" stroke-width="0.5" stroke-miterlimit="10" stroke-linecap="round" stroke-linejoin="round"/>
<path d="M81.1996 99.9L77.0996 94.5" stroke="black" stroke-width="0.5" stroke-miterlimit="10" stroke-linecap="round" stroke-linejoin="round"/>
<path d="M115.7 100.5L119.8 95" stroke="black" stroke-width="0.5" stroke-miterlimit="10" stroke-linecap="round" stroke-linejoin="round"/>
<path d="M110.305 64.5333C111.367 57.9914 106.924 51.8274 100.382 50.7657C93.8405 49.704 87.6765 54.1466 86.6148 60.6885C85.5531 67.2304 89.9957 73.3944 96.5376 74.4561C103.08 75.5178 109.243 71.0752 110.305 64.5333Z" fill="black"/>
</g>
<path d="M103.7 95.9001C104.1 94.7001 104.9 93.8001 105.9 93.1001C106.9 92.4001 108.1 92.1001 109.4 92.0001C110.6 91.9001 111.9 92.2001 113 92.7001C114.1 93.2001 115.1 94.1001 115.6 95.2001C114.4 95.1001 113.4 95.0001 112.4 95.0001C111.4 95.0001 110.5 95.0001 109.6 95.0001C108.7 95.1001 107.8 95.1001 106.9 95.3001C105.9 95.4001 104.9 95.6001 103.7 95.9001Z" fill="#2E2E2E"/>
<path d="M93.1003 95.9001C91.9003 95.6001 90.9003 95.4001 90.0003 95.3001C89.1003 95.2001 88.2003 95.1001 87.3003 95.0001C86.4003 94.9001 85.5003 94.9001 84.5003 95.0001C83.5003 95.0001 82.5003 95.1001 81.3003 95.2001C81.8003 94.1001 82.8003 93.2001 83.9003 92.7001C85.0003 92.2001 86.2003 91.9001 87.5003 92.0001C88.7003 92.1001 89.9003 92.5001 91.0003 93.1001C91.8003 93.8001 92.7003 94.7001 93.1003 95.9001Z" fill="#2E2E2E"/>
<path d="M103 102.4C103.3 102 103.6 101.5 103.9 101.1C104.2 100.7 104.6 100.2 105.1 99.9003C106 99.2003 107.1 98.8003 108.2 98.6003C109.3 98.5003 110.5 98.6003 111.6 99.0003C112.1 99.2003 112.6 99.5003 113.1 99.8003C113.5 100.1 113.9 100.4 114.3 100.8L114 100.7C114 100.7 114.1 100.7 114.3 100.7C114.4 100.7 114.6 100.6 114.7 100.5C115 100.4 115.3 100.2 115.5 100C115.6 99.9003 115.7 100 115.8 100.1C115.9 100.2 115.9 100.3 115.8 100.4C115.6 100.7 115.3 100.9 115.1 101.2C115 101.3 114.8 101.4 114.7 101.5C114.5 101.6 114.4 101.7 114 101.8C113.9 101.8 113.8 101.8 113.8 101.7H113.7C113.2 101.4 112.8 101.1 112.4 100.8C112 100.5 111.6 100.3 111.1 100.1C110.2 99.7003 109.2 99.6003 108.3 99.7003C107.3 99.8003 106.4 100.1 105.6 100.6C105.2 100.8 104.8 101.2 104.4 101.5C104 101.9 103.7 102.3 103.3 102.6C103.2 102.7 103.1 102.7 103 102.6C102.9 102.6 102.9 102.5 103 102.4Z" fill="#2E2E2E"/>
<path d="M106.6 100.8C106.7 99.8003 107.6 99.0003 108.6 99.1003C109.6 99.2003 110.4 100.1 110.3 101.1C110.2 102.1 109.3 102.9 108.3 102.8C107.3 102.7 106.5 101.8 106.6 100.8Z" fill="#2E2E2E"/>
<path d="M112.2 102.2C112.9 102 113.5 101.7 114.1 101.3" stroke="#2E2E2E" stroke-width="0.5" stroke-miterlimit="10" stroke-linecap="round" stroke-linejoin="round"/>
<path d="M103.1 100.3C104.1 98.9002 105.7 97.9002 107.5 97.7002" stroke="#2E2E2E" stroke-width="0.5" stroke-miterlimit="10" stroke-linecap="round" stroke-linejoin="round"/>
<path d="M93.4002 102.7C93.0002 102.3 92.7002 102 92.3002 101.6C91.9002 101.3 91.6001 100.9 91.1001 100.7C90.3001 100.2 89.3002 99.9001 88.4002 99.8001C87.4002 99.7001 86.5001 99.8001 85.6001 100.2C85.1001 100.4 84.7002 100.6 84.3002 100.9C83.9002 101.2 83.4002 101.5 83.0002 101.8H82.9002C82.8002 101.8 82.8002 101.9 82.7002 101.9C82.4002 101.9 82.2002 101.7 82.0002 101.6C81.8002 101.5 81.7001 101.4 81.6001 101.3C81.3001 101.1 81.1002 100.8 80.9002 100.5C80.8002 100.4 80.8002 100.3 80.9002 100.2C81.0002 100.1 81.1002 100.1 81.2002 100.2C81.4002 100.4 81.7002 100.5 82.0002 100.7C82.1002 100.8 82.3002 100.8 82.4002 100.9C82.5002 100.9 82.7002 101 82.7002 100.9L82.4002 101C82.8002 100.7 83.2001 100.4 83.6001 100C84.1001 99.7001 84.6001 99.4001 85.1001 99.2001C86.2001 98.8001 87.3002 98.6001 88.5002 98.8001C89.6002 99.0001 90.7001 99.4001 91.6001 100.1C92.1001 100.4 92.4002 100.9 92.8002 101.3C93.1002 101.7 93.4002 102.2 93.7002 102.6C93.8002 102.7 93.7001 102.8 93.6001 102.9C93.6001 102.8 93.5002 102.7 93.4002 102.7Z" fill="#2E2E2E"/>
<path d="M90.1 100.8C90 99.8003 89.1 99.0003 88.1 99.1003C87.1 99.2003 86.3001 100.1 86.4001 101.1C86.5001 102.1 87.4001 102.9 88.4001 102.8C89.4001 102.7 90.2 101.8 90.1 100.8Z" fill="#2E2E2E"/>
<path d="M84.6002 102.2C83.9002 102 83.3002 101.7 82.7002 101.3" stroke="#2E2E2E" stroke-width="0.5" stroke-miterlimit="10" stroke-linecap="round" stroke-linejoin="round"/>
<path d="M93.6002 100.3C92.6002 98.9002 91.0002 97.9002 89.2002 97.7002" stroke="#2E2E2E" stroke-width="0.5" stroke-miterlimit="10" stroke-linecap="round" stroke-linejoin="round"/>
<path d="M99.2002 113.1C99.7002 112.9 100.1 112.5 100.5 112.1" stroke="#2E2E2E" stroke-width="0.5" stroke-miterlimit="10" stroke-linecap="round" stroke-linejoin="round"/>
<path d="M97.5002 113.1C97.0002 112.9 96.6002 112.5 96.2002 112.1" stroke="#2E2E2E" stroke-width="0.5" stroke-miterlimit="10" stroke-linecap="round" stroke-linejoin="round"/>
<path d="M98.2002 104.3V110.9" stroke="#2E2E2E" stroke-width="0.5" stroke-miterlimit="10"/>
<path d="M104.9 118.1L104.7 118.3C104.1 118.6 103.4 118.6 102.7 118.5C102 118.4 101.4 118.3 100.7 118.4C99.9004 118.5 99.2004 118.8 98.4004 119C97.6004 118.8 96.9003 118.5 96.1003 118.4C95.4003 118.3 94.8003 118.5 94.1003 118.5C93.4003 118.6 92.7003 118.6 92.1003 118.3L91.9004 118.1C92.6004 118.1 93.8004 117.7 94.3004 117.3L94.5004 117.1C95.0004 116.7 95.6004 116.3 96.3004 116.1C97.0004 115.9 97.9004 116 98.4004 116.5C98.9004 116 99.8004 115.9 100.5 116.1C101.2 116.3 101.7 116.7 102.3 117.1L102.5 117.3C102.9 117.7 104.2 118.2 104.9 118.1Z" fill="#2E2E2E"/>
<path d="M96.2002 122C96.3002 122 96.4002 122.1 96.5002 122.1C96.9002 122.2 97.2002 122.3 97.6002 122.3C97.7002 122.3 97.8002 122.3 97.9002 122.3C98.0002 122.3 98.1002 122.3 98.1002 122.3C98.2002 122.3 98.2002 122.3 98.3002 122.3" stroke="#2E2E2E" stroke-width="0.3808" stroke-miterlimit="10" stroke-linecap="round" stroke-linejoin="round"/>
<path d="M104.7 118.3C104.1 119.8 102.9 121 101.3 121.7C100.4 122.1 99.4003 122.3 98.4003 122.3C98.4003 122.3 98.3003 122.3 98.2003 122.3C98.1003 122.3 98.0003 122.3 98.0003 122.3C97.9003 122.3 97.8003 122.3 97.7003 122.3C97.3003 122.3 96.9003 122.2 96.6003 122.1C96.2003 122 95.9003 121.9 95.5003 121.7C93.9003 121 92.7003 119.8 92.1003 118.3C92.7003 118.6 93.4003 118.6 94.1003 118.5C94.8003 118.4 95.4003 118.3 96.1003 118.4C96.9003 118.5 97.6003 118.8 98.4003 119C99.2003 118.8 99.9003 118.5 100.7 118.4C101.4 118.3 102 118.5 102.7 118.5C103.4 118.6 104.1 118.6 104.7 118.3ZM104.7 118.3L104.9 118.1C104.2 118.1 102.9 117.7 102.4 117.3L102.2 117.1C101.7 116.7 101.1 116.3 100.4 116.1C99.7003 115.9 98.8003 116 98.3003 116.5C97.8003 116 96.9003 115.9 96.2003 116.1C95.5003 116.3 95.0003 116.7 94.4003 117.1L94.2003 117.3C93.7003 117.6 92.5003 118.1 91.8003 118.1L92.0003 118.3" stroke="#2E2E2E" stroke-width="0.3808" stroke-miterlimit="10" stroke-linecap="round" stroke-linejoin="round"/>
<path d="M104.6 118.5C103.9 119 102.8 119.4 101.5 119.7C100.5 119.9 99.4002 120 98.4002 120C98.3002 120 98.3002 120 98.2002 120C98.1002 120 98.0002 120 97.9002 120C97.8002 120 97.7002 120 97.5002 120C97.1002 120 96.7002 119.9 96.3002 119.9C95.9002 119.9 95.5002 119.8 95.1002 119.7C93.9002 119.5 93.0002 119.1 92.2002 118.7" stroke="#2E2E2E" stroke-width="0.2837" stroke-miterlimit="10" stroke-linecap="round" stroke-linejoin="round"/>
</svg>
